<?xml version="1.0" encoding="UTF-8"?>
<!DOCTYPE svg PUBLIC "-//W3C//DTD SVG 1.1//EN" "http://www.w3.org/Graphics/SVG/1.1/DTD/svg11.dtd">
<svg xmlns="http://www.w3.org/2000/svg" version="1.1" width="845px" height="535px" style="shape-rendering:geometricPrecision; text-rendering:geometricPrecision; image-rendering:optimizeQuality; fill-rule:evenodd; clip-rule:evenodd" xmlns:xlink="http://www.w3.org/1999/xlink">
<g><path style="opacity:0.988" fill="#fefffe" d="M 588.5,-0.5 C 673.833,-0.5 759.167,-0.5 844.5,-0.5C 844.5,26.5 844.5,53.5 844.5,80.5C 790.167,80.5 735.833,80.5 681.5,80.5C 681.5,125.833 681.5,171.167 681.5,216.5C 722.167,216.5 762.833,216.5 803.5,216.5C 803.5,243.167 803.5,269.833 803.5,296.5C 762.833,296.5 722.167,296.5 681.5,296.5C 681.5,375.833 681.5,455.167 681.5,534.5C 650.5,534.5 619.5,534.5 588.5,534.5C 588.5,356.167 588.5,177.833 588.5,-0.5 Z"/></g>
<g><path style="opacity:0.99" fill="#fefffe" d="M -0.5,413.5 C -0.5,315.833 -0.5,218.167 -0.5,120.5C 1.92651,87.1488 14.5932,58.3155 37.5,34C 58.1145,16.0059 82.1145,5.33927 109.5,2C 145.076,-3.27157 179.076,1.72843 211.5,17C 241.705,34.5502 260.872,60.3835 269,94.5C 271.174,104.05 272.507,113.717 273,123.5C 273.667,219.167 273.667,314.833 273,410.5C 271.647,456.4 251.813,491.567 213.5,516C 180.569,532.107 145.902,537.44 109.5,532C 57.2218,525.371 22.7218,497.204 6,447.5C 2.84603,436.208 0.679364,424.874 -0.5,413.5 Z M 130.5,78.5 C 164.723,76.2237 182.223,92.2237 183,126.5C 183.976,223.519 183.643,320.519 182,417.5C 178.27,443.722 163.104,456.388 136.5,455.5C 106.307,455.141 90.8072,439.808 90,409.5C 89.0211,311.479 89.3545,213.479 91,115.5C 94.4336,92.561 107.6,80.2277 130.5,78.5 Z"/></g>
<g><path style="opacity:0.993" fill="#fefffe" d="M 320.5,0.5 C 399.167,0.5 477.833,0.5 556.5,0.5C 556.667,30.1685 556.5,59.8352 556,89.5C 502.218,210.851 448.051,332.018 393.5,453C 447.832,453.5 502.166,453.667 556.5,453.5C 556.5,480.167 556.5,506.833 556.5,533.5C 471.167,533.5 385.833,533.5 300.5,533.5C 300.333,503.831 300.5,474.165 301,444.5C 355.837,323.316 410.671,202.149 465.5,81C 417.168,80.5 368.834,80.3333 320.5,80.5C 320.5,53.8333 320.5,27.1667 320.5,0.5 Z"/></g>
</svg>
